<?xml version='1.0' encoding='utf-8'?>
<svg xmlns="http://www.w3.org/2000/svg" width="24" height="24" version="1.1" viewBox="0 0 1200 1200">
 <path d="m924 840v-390.12c0-28.801-11.281-55.922-31.68-76.32l-113.88-113.76c-20.398-20.398-47.52-31.68-76.32-31.68h-294.12c-72.84 0-132 59.16-132 132v480c0 72.84 59.16 132 132 132h384c72.84 0 132-59.16 132-132zm-576 0v-480c0-33.121 26.879-60 60-60h294.12c9.6016 0 18.602 3.7188 25.441 10.559l113.88 113.88c6.8398 6.8398 10.559 15.84 10.559 25.441v390.12c0 33.121-26.879 60-60 60h-384c-33.121 0-60-26.879-60-60z" />
 <path d="m660 660h-132c-19.801 0-36 16.199-36 36s16.199 36 36 36h132c19.801 0 36-16.199 36-36s-16.199-36-36-36z" />
 <path d="m660 468h-132c-19.801 0-36 16.199-36 36s16.199 36 36 36h132c19.801 0 36-16.199 36-36s-16.199-36-36-36z" />
</svg>